<svg width="622" height="204" viewBox="0 0 622 204" fill="none" xmlns="http://www.w3.org/2000/svg">
<path fill-rule="evenodd" clip-rule="evenodd" d="M1 193L103 1H174L245.5 193H182L164 140H90.5L66.5 193H1ZM135 42.5L109.5 97H153.5L135 42.5Z" fill="black" stroke="black"/>
<path d="M428 52.2084L425.5 6.7084C330.5 -12.2916 262.5 15.2084 253 103.208C253 175.708 297.5 218.208 417 198.708L424 153.208C343.5 174.708 305 145.708 315.5 94.7084C333 42.7084 375.5 38.2084 428 52.2084Z" fill="black" stroke="black"/>
<path d="M465 10V203.5H527V128.5H604.5V85H529.5V50H621V10H465Z" fill="black" stroke="black"/>
</svg>
